<?xml version="1.0" encoding="utf-8"?>
<!-- Generator: Adobe Illustrator 19.0.0, SVG Export Plug-In . SVG Version: 6.00 Build 0)  -->
<svg version="1.1" id="Layer_1" xmlns="http://www.w3.org/2000/svg" xmlns:xlink="http://www.w3.org/1999/xlink" x="0px" y="0px"
	 viewBox="0 0 228 207.6" style="enable-background:new 0 0 228 207.6;" xml:space="preserve">
<style type="text/css">
	.st0{fill:#7BC693;}
	.st1{fill:#CF1A77;}
	.st2{fill:#79B786;}
	.st3{fill:#FFFFFF;}
</style>
<path id="XMLID_8_" class="st0" d="M205.4,118.5h-135c-12.5,0-22.5-10.1-22.5-22.5V22.5C47.8,10.1,57.9,0,70.4,0h135
	C217.9,0,228,10.1,228,22.5v73.4C228,108.4,217.9,118.5,205.4,118.5z"/>
<polygon id="XMLID_7_" class="st1" points="33.8,175.8 33.8,207.8 41.3,207.8 73,175.8 33.8,175.8 "/>
<path id="XMLID_10_" class="st2" d="M176.3,39.8H47.8v55.2c0,12.5,10.1,22.8,22.5,22.8h128.5V62.6C198.8,50.2,188.7,39.8,176.3,39.8
	z"/>
<path id="XMLID_1_" class="st1" d="M157.6,176.4h-135C10.1,176.4,0,166.3,0,153.8V80.4C0,68,10.1,57.9,22.5,57.9h135
	c12.5,0,22.5,10.1,22.5,22.5v73.4C180.1,166.3,170,176.4,157.6,176.4z"/>
<g id="XMLID_3_">
	<rect id="XMLID_2_" x="29.3" y="102.3" class="st3" width="121.5" height="6.4"/>
	<rect id="XMLID_4_" x="29.3" y="114.7" class="st3" width="121.5" height="6.4"/>
	<rect id="XMLID_5_" x="29.3" y="127.1" class="st3" width="53.3" height="6.4"/>
</g>
</svg>
