<?xml version="1.0" encoding="utf-8"?>
<!-- Generator: Adobe Illustrator 19.0.0, SVG Export Plug-In . SVG Version: 6.00 Build 0)  -->
<svg version="1.1" id="Layer_5" xmlns="http://www.w3.org/2000/svg" xmlns:xlink="http://www.w3.org/1999/xlink" x="0px" y="0px"
	 viewBox="0 0 768 418" style="enable-background:new 0 0 768 418;" xml:space="preserve">
<style type="text/css">
	.st0{fill:#7B7476;}
</style>
<g id="XMLID_78_">
	<g id="XMLID_79_">
		<g id="XMLID_80_" transform="translate(0.000000,511.000000) scale(0.100000,-0.100000)">
			<path id="XMLID_103_" class="st0" d="M1903.2,4930.7c-1.4,1.6-20.4,8.5-41.1,13.9c-75.7,21.4-204.3,2.3-295.3-43.9
				c-44.6-21.9-55.2-30.2-86.4-66.6c-34.3-39.2-60.1-91.5-53.1-107c7.3-17,81.1-23.2,144-12.6c64.9,11.5,84,18.7,158.6,60
				c42.2,23.6,139,103,163.3,134.4C1900.4,4918.8,1905.1,4928.6,1903.2,4930.7z"/>
			<path id="XMLID_102_" class="st0" d="M1469.4,5097.9c-4,0.3-33-12.7-65.2-29.5c-48.8-24.6-67.3-37.9-117.3-86
				c-90.8-86.3-125-152.6-134-259.7c-3.8-39.8,10.6-99.5,25-107.5c14-7.5,70.8,23.1,113,60.7c44.9,40,88,103.6,116.9,172.7
				c30.3,74.1,61.4,175.1,65.1,213C1475.3,5081.5,1473.9,5098.2,1469.4,5097.9z"/>
			<path id="XMLID_101_" class="st0" d="M1729.7,4543.9c-5.8,3.4-23.9,16.7-40.2,27.9c-60.1,43.3-129.5,68.3-200.3,73.2
				c-109.3,6.1-197.1-23.3-234.5-78.3c-13.5-20.1-13.1-22.7,6.4-45.1c46.1-50.8,157.9-71.7,290-53.4c63.3,9.1,157.2,40.1,179.6,59.6
				C1738.1,4534.3,1737.9,4538.8,1729.7,4543.9z"/>
			<path id="XMLID_100_" class="st0" d="M1081.6,4885.6l-16.5-5.9c-26.2-9.7-121.1-104.3-152.6-154.2
				c-83.7-128-102.1-269.5-47.4-361.6c11.2-19.3,16.5-22.2,28.7-19.1c41.7,9.1,115.1,104.7,148.5,194.6
				c34.4,90.8,54.3,230.7,43.5,313.2L1081.6,4885.6z"/>
			<path id="XMLID_99_" class="st0" d="M1385.4,4401.2c-153.7,66.9-355.5,18.9-414.3-97.7c-8.6-15.9-14.1-30.1-12.7-31.7
				c0.9-1.1,25.8-10.3,54.7-19.9c65.1-22.1,148.6-25.5,219.4-8.9c75.4,17.8,182.8,69.9,218.5,106.5
				C1461.2,4360.3,1437.5,4379,1385.4,4401.2z"/>
			<path id="XMLID_98_" class="st0" d="M1001,4400.6c-91.3-93.3-169.6-188.6-246-299c-87-126.2-141.7-226.1-201.3-368.8
				c-28.3-66.7-52.3-123.1-53.9-124.5c-2.7-2.3-47.2-187.1-65.1-270.1c-71-333.3-44.4-732.6,68.9-1060.3
				c160.1-461.3,494.7-871.2,908.7-1112.8c172.4-100.3,471.5-222.6,495-202.1c3.7,3.3,8.6,15.9,10.9,27.3
				c3.5,21.8,3.5,21.8-21.9,30.6c-207.3,73.7-353.2,137.1-465.5,201.6C988.6,1476.1,634.5,1945,501.3,2453
				c-44.7,169.1-70.3,368.8-66.7,513.4c1.3,32,1.3,75.1-0.2,96.3c-4.7,82,52.6,392.2,100.3,543.3c58,184.4,156.2,375.4,285.1,555.8
				c72.8,101.6,103.4,137.6,218,255.8c47.5,48.8,88.7,92,90.9,94.9C1148.9,4537.6,1056.5,4456.4,1001,4400.6z"/>
			<path id="XMLID_97_" class="st0" d="M1213.9,4128.5c-13.9,16-113.3,35.5-174,34.3c-100.9-2.4-181.4-28.4-236.9-75.6
				c-26.1-22.7-55.9-74.8-62.8-108.8l-4.1-22.3l43.5-8.1c93.5-18.1,154.3-8.3,258.9,39.5c45.1,20.4,68.2,35.8,118.9,79.9
				C1203.9,4107.7,1218.5,4123.2,1213.9,4128.5z"/>
			<path id="XMLID_96_" class="st0" d="M730.2,4599.1c-7,8-58.9-53-93.4-109.2c-71.2-115.3-93.3-215-73.5-326.1
				c9.8-53.3,15.7-68.8,36.5-93.8c49.4-60.1,43.5-58.7,76.9-25c44.2,44,79.6,133.7,89,225.3c7.6,72.1-0.6,176.5-20.5,272.6
				C739.3,4571.3,732.5,4596.4,730.2,4599.1z"/>
			<path id="XMLID_95_" class="st0" d="M1021.5,3864.9c-6.5,7.5-147.6,10.4-184.7,3.4c-97.5-18.2-195.6-81-233.5-149.5
				c-24.1-43.4-38.5-106.5-26.2-116.4c15.2-12.1,127.8-0.5,178.7,18.5c25.8,10.2,69.4,32.2,97.2,49.8c72,46.6,164.4,142.8,170.5,179
				C1023.8,3855.7,1023.3,3862.8,1021.5,3864.9z"/>
			<path id="XMLID_94_" class="st0" d="M414.1,4216.8c-9.5-13.9-26.9-47.7-38.9-76c-47.8-117.4-59.9-231.8-34.2-330.4
				c15-57.2,16.8-60.3,65-115.8c27.4-31.5,53.1-57.8,57.1-58.1c16.5-0.6,40.8,31.7,54.3,73.4c8.2,24,17.8,81.9,21.1,128.8
				c7.2,101.7-9.4,186.6-58.2,305.3C437.4,4247.2,437.4,4247.2,414.1,4216.8z"/>
			<path id="XMLID_93_" class="st0" d="M881,3556.5c-37.8,4.6-133.1-11.7-181.6-31.4c-125.3-49.8-203.2-145.6-218.2-266.3
				c-3.4-26.3-3.1-51.4,0.1-55.1c9.7-11.2,58.1-7.6,100.9,9c114.8,42.5,231.3,160.6,297.3,301.4
				C897.3,3552.9,897.5,3554.9,881,3556.5z"/>
			<path id="XMLID_92_" class="st0" d="M820.8,3211.9c-7,8-99.7-21-144.9-44.4c-48.9-25.6-159.1-124.1-168.5-151.1
				c-3-7.3-13.9-32.6-23.9-54.5c-19.6-43.2-24.1-108.1-12.2-166.1l5.8-31.5l44.5,12.4c39.9,11.2,48.3,16.7,104.4,66.3
				c42.8,38.1,69.9,68.3,92.3,101.8c33.6,49.8,83.9,166.5,97.6,227.2C820.4,3191.9,822.6,3209.8,820.8,3211.9z"/>
			<path id="XMLID_91_" class="st0" d="M201.7,3817.7c-5.3-4.6-34.1-121.4-41.4-169c-20.4-133.9,27.7-304.6,106.8-378.4
				c29.6-27.6,102.7-65.3,111.2-57.9c10.1,8.8,28,106.8,28,156.4c0.5,92.2-40.9,216.4-112.7,336.7
				C263.6,3756.2,208.7,3823.7,201.7,3817.7z"/>
			<path id="XMLID_90_" class="st0" d="M816,2850.9c-2.3,2.7-22.8-3.9-45.6-14.3C713.9,2810,620,2729.3,586.8,2678
				c-54.6-84.9-72.1-177.9-48.2-258.2c14.6-49.1,29.5-65.2,52.4-53.8c30.6,14.4,101.3,79.6,127,116.9
				c55.7,80.3,96.3,208.3,100.7,314.2C819.6,2824.1,818.3,2848.2,816,2850.9z"/>
			<path id="XMLID_89_" class="st0" d="M895.1,2501c-7.9,9.1-60.3-23.3-91.7-56.2c-103.3-107.5-157.3-255.6-130.5-359.7
				c10.2-40.8,49.2-112.7,63.4-117.2c13.2-4.4,76.5,61.8,104.9,109.9c13.7,23.1,32.7,65.9,42.3,94.8c21.6,65.6,33.1,200.2,23.1,271
				C902.1,2472.5,897,2498.9,895.1,2501z"/>
			<path id="XMLID_88_" class="st0" d="M71.8,3330.2c-9.3,3.2-13-6.6-16.3-47c-5.9-76.3,0.9-158.5,21.1-234.6
				c25-94.5,50.2-141.9,105.9-198.4c48.6-50.5,85.7-71.7,150.3-86.7l38-9.2l1.3,54.5c2.6,100.5-38,222.6-104.5,317.5
				C216.8,3197.7,97.3,3322.4,71.8,3330.2z"/>
			<path id="XMLID_87_" class="st0" d="M1025.8,2170.6c-7.1-9-29-35.6-49.7-59.2c-55.2-64.8-89.1-147.6-94.9-231.4
				c-2.5-35.9-0.7-81.2,4-99.5c16.7-69.9,88.4-169.6,114.6-159.9c12.9,4.6,66.5,97,80.4,139.2c32.2,94.5,22.7,273.6-20.8,381.9
				C1041,2187.6,1040.1,2188.6,1025.8,2170.6z"/>
			<path id="XMLID_86_" class="st0" d="M1273.6,1881c-24,28.8-22.4,30.1-72.1-85.1c-26.9-61.8-36.2-94.2-39.3-139.1
				c-9-107.1,16-193.1,76.3-262.5c30.6-35.2,83.6-72.5,99.3-70.1c4.6,1.2,17,27.9,28.2,59.2c43.2,123.8,25.6,272.3-50.1,428.5
				C1303.6,1836.9,1284.8,1868.2,1273.6,1881z"/>
			<path id="XMLID_84_" class="st0" d="M229.9,2684.6c-82.2,64.4-184.7,124.2-206.6,120.3c-10.1-1.3,4.1-98.5,23.9-159.1
				c29.8-89.3,69.2-157.2,128-218.5c30.8-32.2,65.3-62.2,86.5-74.7c51-29.7,127.4-48.5,162.6-39.5c27,6.6,29.1,8.5,31.3,24.4
				c2.7,24.8-20.6,99.2-46.4,146.1C376.4,2543.9,298.8,2630.1,229.9,2684.6z"/>
			<path id="XMLID_83_" class="st0" d="M193.3,2263.1c-100.3,28.1-103.3,27.3-90.7-14.2c31.8-103.5,126.8-235.4,210.6-291.9
				c88-59.3,181.7-81.9,269.1-65c23.9,4.8,45.9,10.8,49.6,14.1c7.5,6.5-10.6,56.4-34.9,96.2C534.5,2104.3,361.4,2216.2,193.3,2263.1
				z"/>
			<path id="XMLID_82_" class="st0" d="M1261.7,1218.8l-25.9,23.4c-135.9,119.8-338.8,150.6-614.9,93.3l-46.8-9.8l35.7-34.6
				c94.9-89.9,248.8-167.8,357.7-180c34.3-3.9,85-2.9,112.4,2.1c60.4,11.3,132.6,47.8,162.1,81.8L1261.7,1218.8z"/>
			<path id="XMLID_81_" class="st0" d="M777.7,1670.3c-51.6,35.7-128.5,69.1-204.3,88.5c-70.4,18.5-277.6,36-284.4,24.5
				c-8.5-13.9,18.4-52.4,83.2-121.6c96.1-102,198.1-162.3,305-180.8c112.5-18.4,240.3,24.2,218.2,73.4
				C884.4,1577.6,821.2,1640.7,777.7,1670.3z"/>
		</g>
	</g>
</g>
<g id="XMLID_28_">
	<g id="XMLID_29_">
		<g id="XMLID_30_" transform="translate(0.000000,511.000000) scale(0.100000,-0.100000)">
			<path id="XMLID_52_" class="st0" d="M5796.8,4908.8c24.3-31.4,121.1-110.8,163.3-134.4c74.6-41.4,93.6-48.6,158.6-60
				c62.9-10.6,136.6-4.4,144,12.6c6.9,15.5-18.8,67.8-53.1,107c-31.1,36.4-41.7,44.7-86.4,66.6c-91,46.2-219.6,65.3-295.3,43.9
				c-20.7-5.5-39.7-12.3-41.1-13.9C5784.9,4928.6,5789.6,4918.8,5796.8,4908.8z"/>
			<path id="XMLID_51_" class="st0" d="M6217.1,5061.6c3.7-37.8,34.8-138.9,65.1-213c28.9-69.1,72-132.8,116.9-172.7
				c42.2-37.6,99-68.2,113-60.7c14.5,8,28.8,67.7,25,107.5c-9,107.1-43.2,173.4-134,259.7c-50,48.1-68.5,61.3-117.3,86
				c-32.2,16.8-61.2,29.8-65.2,29.5C6216.1,5098.2,6214.7,5081.5,6217.1,5061.6z"/>
			<path id="XMLID_50_" class="st0" d="M5959.4,4527.8c22.4-19.5,116.3-50.5,179.6-59.6c132.1-18.3,243.9,2.6,290,53.4
				c19.5,22.4,19.8,24.9,6.4,45.1c-37.5,55-125.2,84.4-234.5,78.3c-70.8-5-140.2-29.9-200.3-73.2c-16.3-11.1-34.4-24.4-40.2-27.9
				C5952.1,4538.8,5951.9,4534.3,5959.4,4527.8z"/>
			<path id="XMLID_49_" class="st0" d="M6604.2,4852.8c-10.8-82.5,9.1-222.4,43.5-313.2c33.4-89.9,106.7-185.4,148.5-194.6
				c12.3-3.1,17.6-0.3,28.7,19.1c54.7,92,36.2,233.6-47.4,361.6c-31.6,49.9-126.4,144.5-152.6,154.2l-16.5,5.9L6604.2,4852.8z"/>
			<path id="XMLID_48_" class="st0" d="M6239.1,4349.5c35.6-36.6,143.1-88.7,218.5-106.5c70.8-16.6,154.3-13.2,219.4,8.9
				c28.9,9.5,53.8,18.8,54.7,19.9c1.4,1.6-4.1,15.8-12.7,31.7c-58.8,116.7-260.6,164.6-414.3,97.7
				C6252.5,4379,6228.8,4360.3,6239.1,4349.5z"/>
			<path id="XMLID_47_" class="st0" d="M6561.4,4512.5c2.2-2.9,43.3-46.1,90.9-94.9c114.5-118.3,145.2-154.2,218-255.8
				c128.9-180.4,227-371.5,285.1-555.8c47.7-151,105-461.2,100.3-543.3c-1.5-21.1-1.5-64.3-0.2-96.3
				c3.6-144.6-21.9-344.3-66.7-513.4c-133.2-508-487.2-976.9-929.5-1230.5c-112.3-64.5-258.2-127.9-465.5-201.6
				c-25.5-8.8-25.5-8.8-21.9-30.6c2.3-11.4,7.2-24,10.9-27.3c23.5-20.4,322.6,101.9,495,202.1c414.1,241.6,748.7,651.5,908.7,1112.8
				c113.3,327.7,139.9,727,68.9,1060.3c-17.9,82.9-62.4,267.7-65.1,270.1c-1.6,1.4-25.6,57.8-53.9,124.5
				c-59.6,142.7-114.3,242.6-201.3,368.8c-76.4,110.4-154.8,205.6-246,299C6633.5,4456.4,6541.1,4537.6,6561.4,4512.5z"/>
			<path id="XMLID_46_" class="st0" d="M6532.5,4067.4c50.7-44.1,73.8-59.5,118.9-79.9c104.6-47.8,165.4-57.5,258.9-39.5l43.5,8.1
				l-4.1,22.3c-6.9,34.1-36.6,86.1-62.8,108.8c-55.4,47.2-136,73.1-236.9,75.6c-60.7,1.3-160.1-18.2-174-34.3
				C6471.5,4123.2,6486.1,4107.7,6532.5,4067.4z"/>
			<path id="XMLID_45_" class="st0" d="M6944.7,4542.9c-19.8-96.1-28-200.4-20.5-272.6c9.4-91.6,44.8-181.3,89-225.3
				c33.5-33.7,27.5-35.1,76.9,25c20.8,25,26.7,40.5,36.5,93.8c19.8,111.1-2.3,210.9-73.5,326.1c-34.5,56.2-86.4,117.2-93.4,109.2
				C6957.5,4596.4,6950.7,4571.3,6944.7,4542.9z"/>
			<path id="XMLID_44_" class="st0" d="M6666.6,3849.7c6.1-36.1,98.5-132.4,170.5-179c27.8-17.6,71.4-39.6,97.2-49.8
				c50.9-19,163.5-30.6,178.7-18.5c12.3,9.9-2.1,73-26.2,116.4c-37.9,68.5-136,131.3-233.5,149.5c-37.1,6.9-178.2,4-184.7-3.4
				C6666.7,3862.8,6666.2,3855.7,6666.6,3849.7z"/>
			<path id="XMLID_43_" class="st0" d="M7209.7,4144c-48.8-118.7-65.4-203.6-58.2-305.3c3.3-46.9,12.9-104.8,21.1-128.8
				c13.4-41.7,37.8-74,54.3-73.4c4,0.3,29.7,26.6,57.1,58.1c48.2,55.5,50,58.6,65,115.8c25.7,98.5,13.6,213-34.2,330.4
				c-12,28.2-29.4,62.1-38.9,76C7252.6,4247.2,7252.6,4247.2,7209.7,4144z"/>
			<path id="XMLID_42_" class="st0" d="M6810.5,3514c66-140.7,182.6-258.8,297.3-301.4c42.7-16.5,91.1-20.2,100.9-9
				c3.3,3.7,3.5,28.8,0.1,55.1c-15,120.7-92.9,216.5-218.2,266.3c-48.5,19.7-143.9,36-181.6,31.4
				C6792.5,3554.9,6792.7,3552.9,6810.5,3514z"/>
			<path id="XMLID_41_" class="st0" d="M6874,3172.1c13.8-60.7,64.1-177.4,97.6-227.2c22.4-33.5,49.6-63.7,92.3-101.8
				c56.1-49.7,64.5-55.1,104.4-66.3l44.5-12.4l5.8,31.5c12,58,7.4,122.8-12.2,166.1c-10,21.9-20.9,47.2-23.9,54.5
				c-9.4,26.9-119.6,125.4-168.5,151.1c-45.2,23.4-138,52.4-144.9,44.4C6867.4,3209.8,6869.6,3191.9,6874,3172.1z"/>
			<path id="XMLID_40_" class="st0" d="M7396.4,3705.5c-71.7-120.3-113.1-244.5-112.7-336.7c0-49.6,17.9-147.6,28-156.4
				c8.5-7.4,81.6,30.3,111.2,57.9c79,73.7,127.2,244.5,106.8,378.4c-7.3,47.6-36.1,164.4-41.4,169
				C7481.3,3823.7,7426.4,3756.2,7396.4,3705.5z"/>
			<path id="XMLID_39_" class="st0" d="M6871.3,2797.1c4.4-105.9,45-233.9,100.7-314.2c25.7-37.3,96.4-102.5,127-116.9
				c22.9-11.4,37.7,4.7,52.4,53.8c23.9,80.3,6.4,173.4-48.2,258.2c-33.2,51.3-127,131.9-183.5,158.5c-22.8,10.4-43.3,17-45.6,14.3
				C6871.7,2848.2,6870.4,2824.1,6871.3,2797.1z"/>
			<path id="XMLID_38_" class="st0" d="M6783.4,2443.6c-10.1-70.9,1.4-205.4,23.1-271c9.5-28.9,28.6-71.7,42.3-94.8
				c28.4-48.1,91.7-114.3,104.9-109.9c14.2,4.5,53.3,76.4,63.4,117.2c26.8,104.1-27.2,252.2-130.5,359.7
				c-31.4,32.9-83.8,65.3-91.7,56.2C6793,2498.9,6787.9,2472.5,6783.4,2443.6z"/>
			<path id="XMLID_37_" class="st0" d="M7422.5,3126.5c-66.5-94.9-107.1-217-104.5-317.5l1.3-54.5l38,9.2
				c64.6,15.1,101.7,36.2,150.3,86.7c55.7,56.5,80.9,103.9,105.9,198.4c20.2,76.1,27,158.3,21.1,234.6c-3.3,40.4-7,50.1-16.3,47
				C7592.7,3322.4,7473.2,3197.7,7422.5,3126.5z"/>
			<path id="XMLID_36_" class="st0" d="M6630.6,2141.7c-43.5-108.3-53-287.4-20.8-381.9c14-42.1,67.6-134.6,80.4-139.2
				c26.2-9.7,97.9,90.1,114.6,159.9c4.7,18.4,6.6,63.6,4,99.5c-5.9,83.8-39.8,166.6-94.9,231.4c-20.7,23.6-42.6,50.1-49.7,59.2
				C6649.9,2188.6,6649,2187.6,6630.6,2141.7z"/>
			<path id="XMLID_35_" class="st0" d="M6374.1,1811.9c-75.7-156.2-93.4-304.8-50.1-428.5c11.2-31.3,23.6-58,28.2-59.2
				c15.7-2.4,68.7,34.9,99.3,70.1c60.3,69.4,85.3,155.4,76.3,262.5c-3.2,44.9-12.5,77.3-39.3,139.1
				c-49.7,115.3-48.1,113.9-72.1,85.1C6405.2,1868.2,6386.4,1836.9,6374.1,1811.9z"/>
			<path id="XMLID_34_" class="st0" d="M7280.7,2483.5c-25.8-46.9-49.1-121.2-46.4-146.1c2.1-15.9,4.3-17.7,31.3-24.4
				c35.2-9,111.6,9.8,162.6,39.5c21.1,12.5,55.7,42.5,86.5,74.7c58.9,61.3,98.2,129.2,128,218.5c19.8,60.5,34,157.8,23.9,159.1
				c-21.8,4-124.4-55.8-206.6-120.3C7391.2,2630.1,7313.6,2543.9,7280.7,2483.5z"/>
			<path id="XMLID_33_" class="st0" d="M7093,2002.2c-24.3-39.8-42.3-89.7-34.9-96.2c3.7-3.3,25.7-9.2,49.6-14.1
				c87.4-16.9,181,5.7,269.1,65c83.7,56.5,178.7,188.5,210.6,291.9c12.6,41.5,9.6,42.3-90.7,14.2
				C7328.6,2216.2,7155.5,2104.3,7093,2002.2z"/>
			<path id="XMLID_32_" class="st0" d="M6448,1195.1c29.5-34,101.7-70.5,162.1-81.8c27.4-5.1,78.1-6.1,112.4-2.1
				c108.9,12.2,262.8,90.1,357.7,180l35.7,34.6l-46.8,9.8c-276.2,57.3-479,26.5-614.9-93.3l-25.9-23.4L6448,1195.1z"/>
			<path id="XMLID_31_" class="st0" d="M6794.7,1554.3c-22.1-49.2,105.7-91.8,218.2-73.4c107,18.5,209,78.8,305,180.8
				c64.8,69.2,91.7,107.7,83.2,121.6c-6.8,11.5-214.1-6-284.4-24.5c-75.8-19.4-152.7-52.8-204.3-88.5
				C6868.8,1640.7,6805.6,1577.6,6794.7,1554.3z"/>
		</g>
	</g>
</g>
</svg>
